<svg id="Layer_1" data-name="Layer 1" xmlns="http://www.w3.org/2000/svg" viewBox="0 0 30.36 32.72"><title>hand</title><path d="M26.11,25.26l1.51,2.51a13,13,0,0,1-3.67,3.46,10.79,10.79,0,0,1-4.54,1.5l-1.16-1.93-2.57-.84a22.11,22.11,0,0,1-5.74-5.29L8.86,22.43,2,18.64A5.39,5.39,0,0,1,0,17a1.9,1.9,0,0,1-.25-1.46,1.77,1.77,0,0,1,.84-1.16q1-.59,2.94.43l6,3.16L3.38,12a10.2,10.2,0,0,1-1.46-1.63,2.5,2.5,0,0,1-.45-1.72,1.91,1.91,0,0,1,1-1.26q1.47-.89,3.47,1l6.52,6.07L7.42,6a4.09,4.09,0,0,1-.75-2.34A2,2,0,0,1,7.73,2.1Q9.67,0.93,11.53,4l4.85,8.49L14.65,4.66q-0.77-3.45.63-4.3A1.92,1.92,0,0,1,16.73,0a1.94,1.94,0,0,1,1.14,1,9.87,9.87,0,0,1,.91,2.15l2.91,9.74a12.73,12.73,0,0,1,1.41,1.66A11.87,11.87,0,0,1,24.26,13a6.58,6.58,0,0,1,.51-2.76,3.9,3.9,0,0,1,1.56-1.76,4.9,4.9,0,0,1,3.21-.26l0.52,0.07-1.62,5.87-0.62,6.26A35.22,35.22,0,0,1,26.11,25.26Zm-1.11.1a51.39,51.39,0,0,0,1.85-5.59L27.42,14l1.41-5a3,3,0,0,0-2,.26,2.92,2.92,0,0,0-1.22,1.49,5.91,5.91,0,0,0-.3,2.47,12.6,12.6,0,0,0-3.08,6.63l-1-.12a9.18,9.18,0,0,1,1.33-4.29,17.59,17.59,0,0,0-1.83-2L18,3.92a9.12,9.12,0,0,0-.76-2,1.5,1.5,0,0,0-.66-0.66,0.8,0.8,0,0,0-.73.09q-0.74.44-.26,2.62l2,9.06-1.51.91-5-8.74-0.32-.57Q9.37,2.28,8.26,2.95a1.1,1.1,0,0,0-.58.89,2.43,2.43,0,0,0,.44,1.37L8.81,6.3l5.29,8.77-1.23,1.08-7-6.72Q4,7.62,3,8.18a1,1,0,0,0-.52.68,1.49,1.49,0,0,0,.27,1A8.36,8.36,0,0,0,4,11.13l7.47,7.11-0.91,1.38L3.05,15.73q-1.43-.76-2-0.44a0.78,0.78,0,0,0-.41.51,1,1,0,0,0,.18.7A4.56,4.56,0,0,0,2.5,17.74l7.11,3.89,1.21,2.5a23,23,0,0,0,5.46,5l2.77,1L20,31.59a10.38,10.38,0,0,0,3.61-1.36,11.92,11.92,0,0,0,2.84-2.52Z" transform="translate(0.3)"/></svg>